<?xml version="1.0" encoding="utf-8"?>
<!-- Generator: Adobe Illustrator 19.0.0, SVG Export Plug-In . SVG Version: 6.00 Build 0)  -->
<svg version="1.1" id="Layer_1" xmlns="http://www.w3.org/2000/svg" xmlns:xlink="http://www.w3.org/1999/xlink" x="0px" y="0px"
	 viewBox="0 0 576 576" style="enable-background:new 0 0 576 576;" xml:space="preserve">
<style type="text/css">
	.st0{fill:#00A99D;}
	.st1{fill:#FFFFFF;}
</style>
<path id="XMLID_85_" class="st0" d="M159.6,290.7c-6.9,12-12.6,22.8-19.1,33.2c-8.7,13.9-25.8,14.2-35,0.4
	c-6.8-10.2-12.5-21.1-18.6-31.8c-14.8-25.8-29.5-51.7-45.1-79.1c15,0,28.5-1,41.8,0.6c4.6,0.5,9.5,6.9,12.4,11.7
	c10.5,17.1,20,34.8,30.2,52.2C134.1,291.6,142.5,295,159.6,290.7z"/>
<path id="XMLID_82_" d="M537.6,335.5c-20.2,0-38.8,1.1-57.3-0.3c-25.9-1.9-45.5-25.7-44.8-52.4c0.7-26.2,21.4-47.5,48.3-49.5
	c25.3-1.9,49.2,17.5,52.9,43c0.6,4,0.8,8.2,0.9,12.2C537.7,303.7,537.6,319,537.6,335.5z M516.9,315.3c0-12,0.9-23.5-0.2-34.8
	c-1.6-16.7-16.1-27.8-32.8-26.5c-16,1.3-28.3,14.5-28.3,30.4c0,16.5,12.4,30,29.1,30.8C494.7,315.7,504.8,315.3,516.9,315.3z"/>
<path id="XMLID_79_" d="M307.7,285.2c-0.1,28.3-23,51.2-51.1,51.2s-51.2-23.1-51.2-51.3c0-28.2,23-51.1,51.2-51.1
	C285,234.1,307.8,257,307.7,285.2z M257,254.6c-17.5-0.2-31.7,13.6-31.6,30.7c0.1,16.8,13.7,30.4,30.6,30.5
	c17.7,0.2,31.4-13.3,31.5-30.7C287.6,268.3,274.1,254.8,257,254.6z"/>
<path id="XMLID_78_" d="M422.3,335.3c-7.2,0-13,0-20.1,0c0-17.6,0.3-34.7-0.1-51.7c-0.4-14.1-10.8-25.8-24.1-28.5
	c-14.3-2.9-28.7,3.9-34.2,17.1c-2.2,5.3-2.8,11.6-3,17.4c-0.4,14.9-0.1,29.7-0.1,45.5c-6.6,0-12.4,0-21.4,0
	c1.5-22.5,0.2-45.9,5.1-67.9c5.2-23.4,31-36.1,55.8-32.4c22.8,3.4,41.4,23.7,42.1,47C422.7,299.2,422.3,316.7,422.3,335.3z"/>
<path id="XMLID_77_" class="st0" d="M133,212.6c14.9,0,26.4-0.1,37.8,0c10.5,0.1,16.3,5.9,18.6,15.8c2.2,9.5-1,17-9.2,21.8
	c-8.8,5.2-18.5,5.8-25.1-2.8C147.3,237.3,141.3,225.8,133,212.6z"/>
<path id="XMLID_76_" d="M192.3,335.5c-6.3,0-11.9,0-18.2,0c0-23.5,0-46.8,0-70.1c5.8-2.9,11.7-5.9,18.2-9.3
	C192.3,282.1,192.3,308.2,192.3,335.5z"/>
<path id="XMLID_75_" class="st1" d="M516.9,315.3c-12.2,0-22.2,0.4-32.2-0.1c-16.7-0.8-29.1-14.3-29.1-30.8
	c0-16,12.3-29.2,28.3-30.4c16.7-1.3,31.2,9.8,32.8,26.5C517.8,291.8,516.9,303.3,516.9,315.3z"/>
<path id="XMLID_74_" class="st1" d="M257,254.6c17,0.2,30.5,13.7,30.5,30.5c0,17.4-13.8,30.9-31.5,30.7
	c-16.9-0.2-30.5-13.7-30.6-30.5C225.3,268.1,239.5,254.3,257,254.6z"/>
<g id="XMLID_2_">
	<path id="XMLID_3_" d="M342.4,373.2c-14.2,10.7-25.2,18.2-33.1,22.6c-13.2,7.2-26,11.4-38.2,12.4c-1.9,0.1-3.9,0.2-5.9,0.2
		c-8.7,0-16.9-1.4-24.6-4.1c-6.6-2.4-11-5-13.4-7.7c-1.2-1.3-1.9-2.8-2.2-4.4c-0.4-1.8,0.3-2.8,2.1-2.8c0.8,0,1.5,0.2,2.2,0.5
		c5.6,3.9,14.4,6.8,26.5,8.7c3.2,0.4,6.6,0.6,10.1,0.6c9.6,0,19.6-2.1,30.1-6.4c7.8-3.2,15.9-7.6,24.3-13.3
		c5.1-3.7,10.3-7.3,15.6-11.1c1.1-0.9,2.6-1.9,4.6-3c0.6-0.2,1.1-0.2,1.5-0.2c2.2,0,3.4,1.1,3.4,3.3
		C345.4,370.2,344.4,371.7,342.4,373.2z M287.8,426.4c3.3,0.9,5,2.8,5,5.8c0,3.1-1.3,6.7-3.8,10.8c-2.3,3.5-4.5,5.9-6.6,7.2
		c-2.4,1.3-4.6,2.7-6.8,4.2c-2.6,1.3-5.2,1.9-7.8,1.9h-1.9c-0.5-0.1-1-0.4-1.7-0.9s-1-1.1-1-1.7c0-0.5,0.2-1,0.7-1.6
		c0.5-0.2,1.6-0.5,3.3-0.9c4-1,7.5-2.8,10.7-5.5c3-2.5,4.9-5,5.8-7.3c0.6-1.2,0.9-2.2,0.9-2.9c0-0.9-0.6-1.4-1.7-1.4
		c-0.5,0-1.3,0.2-2.5,0.6c-4.5,1.7-6.5,3.6-6.1,5.9c0,0.2,0.3,0.6,0.9,1c0.6,0.5,0.8,1,0.6,1.6c-0.2,1.9-1,2.8-2.4,2.8
		c-0.8,0-1.8-0.7-3-2s-1.8-2.8-1.8-4.5c0-3.3,1.7-6.3,5-9.2c3.3-2.8,7-4.3,10.9-4.3C285.6,426,286.7,426.1,287.8,426.4z"/>
	<path id="XMLID_7_" d="M363.8,383.5c-0.6,6-1.5,10.9-2.6,14.9c-0.4,1.4-1.1,3.3-2.3,5.7c-0.6,1.1-1.6,2.5-2.9,4.1
		c-0.6,0.3-1.3,0.5-2.1,0.5c-1.1,0-1.7-0.5-1.7-1.4c0-0.2,0-0.5,0-0.8c2.4-4.4,3.8-9.4,4.3-14.9s0.7-11.1,0.6-16.7
		c0-0.5,0.3-1.4,0.8-2.5c0.2-0.8,1-1.2,2.4-1.2c1.1,0,1.8,0.5,2.3,1.5C363.8,374.5,364.1,378.2,363.8,383.5z"/>
	<path id="XMLID_9_" d="M414.1,378.7c-1.8,2.4-3.5,4.8-5.1,7.3c-2.7,3.8-4.1,6.8-4.2,9.1c0,3.7,2.5,5.4,7.6,5.2v8.2
		c-2.6,0-5-0.5-7.4-1.6s-4-2.6-4.8-4.7c-0.8-2-1.2-3.8-1.2-5.4c0-4.8,1.9-9.6,5.7-14.5c3-4.1,5.4-6.6,7.4-7.4h0.6
		c1.1,0,1.7,0.7,1.7,2.1C414.5,377.6,414.4,378.2,414.1,378.7z"/>
	<path id="XMLID_11_" d="M433.5,393.7c-1.3,4.3-4.2,7.9-8.7,10.7c-4.5,2.8-9,4.1-13.4,4v-8.2c2.2,0,4.9-0.5,8-1.6s5.5-2.9,7-5.3
		c1.5-2.5,2.5-4.5,2.9-6.1h0.7c1.2,0,2.1,0.5,2.7,1.6s0.9,2.2,0.9,3.3C433.7,392.7,433.6,393.3,433.5,393.7z M431.6,364.6
		c-0.6,3.5-2,5.2-4.3,5.2c-2.2,0-3.4-1.2-3.4-3.5c0-1.5,0.6-2.9,1.9-4.5c1-1,1.9-1.5,2.9-1.5c0.9,0,1.6,0.5,2.2,1.5
		C431.6,362.7,431.8,363.7,431.6,364.6z"/>
	<path id="XMLID_14_" d="M473.6,408.4h-5.5c-5.9,11.1-15.1,17.5-27.5,19.3c-0.7,0-1.4,0-2,0c-3.4,0-5.1-0.8-5.1-2.5
		c0-1,0.8-1.6,2.5-1.7c5.6-0.5,10.5-2.1,14.9-4.8c4.6-2.8,7.7-6.2,9.1-10.3l-1.7-1.1c-1.2-0.7-2.1-2-2.7-3.7
		c-0.1-0.5-0.2-1.1-0.2-1.8c0-2.5,0.9-5.1,2.7-7.8c1.8-2.8,3.7-4.5,5.7-5.1c0.8-0.2,1.7-0.3,2.5-0.3c3.6,0,5.4,3,5.4,9
		c0,0.6,0,1.4,0,2.5c0.2,0.1,0.8,0.1,2.1,0.1v8.2H473.6z"/>
	<path id="XMLID_16_" d="M496.3,428.6c2,0.7,2.9,1.4,2.9,2.1c0,0.9-1.4,1.5-4.2,1.7c-6.8,0.4-13,1.8-18.5,4.3
		c-0.6,0.2-1.1,0.4-1.7,0.4c-1.8,0-2.7-0.7-2.7-2.2c0-1.1,0.9-2.2,2.7-3.2c3.8-2.5,8.8-3.7,15.2-3.7
		C492.8,427.9,494.9,428.2,496.3,428.6z M494.6,393.7c-1.2,4.3-4,7.9-8.5,10.7c-4.5,2.8-9,4.1-13.4,4v-8.2c2.1,0,4.8-0.5,8-1.6
		s5.6-2.9,7.1-5.3c1.6-2.5,2.5-4.5,2.8-6.1h0.6c1.2,0,2.1,0.5,2.8,1.6c0.7,1.1,1,2.2,1,3.3C494.9,392.7,494.8,393.3,494.6,393.7z"/>
	<path id="XMLID_19_" d="M529.9,401.2c-4.4,9.2-11.7,15.5-22,18.8c-2.6,0.9-4.9,1.4-6.8,1.4c-2,0-2.9-0.6-2.9-1.7
		c0-0.4,0.2-0.7,0.5-1.1s1.9-1,4.7-2.1c3.2-1.2,5.7-2.3,7.6-3.2c5.8-3.6,9.1-7.1,9.9-10.6c-1.2,0.1-2.3-0.3-3.4-1.1
		c-1.4-0.9-2.1-2.5-2.1-4.5c0-1.6,0.4-3.6,1.2-5.8c1.8-4.7,4.4-7.3,7.7-7.9c0.3,0,0.7-0.1,1.1-0.1c4.4,0,6.5,3,6.5,9
		C532.1,395.4,531.3,398.4,529.9,401.2z"/>
</g>
</svg>
